<svg width="31" height="32" viewBox="0 0 31 32" fill="none" xmlns="http://www.w3.org/2000/svg">
<path d="M16.5 29C13.83 29 11.2199 28.2082 8.99981 26.7248C6.77974 25.2414 5.04941 23.133 4.02763 20.6662C3.00585 18.1994 2.7385 15.485 3.2594 12.8663C3.78031 10.2475 5.06605 7.84207 6.95406 5.95406C8.84207 4.06605 11.2475 2.78031 13.8663 2.2594C16.485 1.7385 19.1994 2.00585 21.6662 3.02763C24.133 4.04941 26.2414 5.77974 27.7248 7.99981C29.2082 10.2199 30 12.83 30 15.5C30 19.0804 28.5777 22.5142 26.0459 25.0459C23.5142 27.5777 20.0804 29 16.5 29ZM16.5 3.92858C14.2114 3.92858 11.9742 4.60723 10.0713 5.87871C8.16835 7.1502 6.68521 8.95741 5.8094 11.0718C4.93359 13.1862 4.70443 15.5128 5.15092 17.7575C5.5974 20.0021 6.69948 22.0639 8.31777 23.6822C9.93606 25.3005 11.9979 26.4026 14.2425 26.8491C16.4872 27.2956 18.8138 27.0664 20.9282 26.1906C23.0426 25.3148 24.8498 23.8317 26.1213 21.9287C27.3928 20.0258 28.0714 17.7886 28.0714 15.5C28.0714 12.4311 26.8523 9.48783 24.6822 7.31777C22.5122 5.14771 19.5689 3.92858 16.5 3.92858Z" fill="#565656"/>
<path d="M19.1523 23L14 17.41V8H15.8434V16.58L20.452 21.59L19.1523 23Z" fill="#565656"/>
</svg>
