<svg width="36" height="36" viewBox="0 0 36 36" fill="none" xmlns="http://www.w3.org/2000/svg">
<path d="M16.4303 16.6899C15.0459 16.6899 13.6925 16.2794 12.5414 15.5102C11.3902 14.7411 10.493 13.6478 9.96319 12.3687C9.43338 11.0896 9.29475 9.68218 9.56485 8.32431C9.83495 6.96644 10.5016 5.71916 11.4806 4.7402C12.4596 3.76123 13.7068 3.09454 15.0647 2.82445C16.4226 2.55435 17.83 2.69297 19.1091 3.22279C20.3882 3.7526 21.4815 4.64981 22.2506 5.80095C23.0198 6.9521 23.4303 8.30548 23.4303 9.68994C23.4303 11.5465 22.6928 13.3269 21.3801 14.6397C20.0673 15.9524 18.2869 16.6899 16.4303 16.6899ZM16.4303 4.76994C15.4414 4.76994 14.4747 5.06319 13.6525 5.6126C12.8302 6.162 12.1894 6.9429 11.8109 7.85653C11.4325 8.77016 11.3335 9.77549 11.5264 10.7454C11.7193 11.7153 12.1955 12.6062 12.8948 13.3055C13.5941 14.0047 14.485 14.4809 15.4549 14.6739C16.4248 14.8668 17.4301 14.7678 18.3438 14.3893C19.2574 14.0109 20.0383 13.37 20.5877 12.5478C21.1371 11.7256 21.4303 10.7589 21.4303 9.76995C21.4303 9.11334 21.301 8.46316 21.0497 7.85653C20.7985 7.2499 20.4302 6.6987 19.9659 6.23441C19.5016 5.77012 18.9504 5.40182 18.3438 5.15055C17.7371 4.89927 17.087 4.76994 16.4303 4.76994ZM22.0003 17.8999C16.5888 16.6822 10.9274 17.2687 5.88035 19.5699C5.18624 19.9015 4.60061 20.4234 4.19165 21.0749C3.78268 21.7264 3.56722 22.4807 3.57035 23.2499V29.1999C3.57035 29.3313 3.59621 29.4613 3.64647 29.5826C3.69672 29.704 3.77038 29.8142 3.86324 29.9071C3.9561 29.9999 4.06634 30.0736 4.18766 30.1238C4.30899 30.1741 4.43902 30.1999 4.57035 30.1999C4.70167 30.1999 4.8317 30.1741 4.95303 30.1238C5.07436 30.0736 5.18459 29.9999 5.27745 29.9071C5.37031 29.8142 5.44397 29.704 5.49423 29.5826C5.54448 29.4613 5.57035 29.3313 5.57035 29.1999V23.2499C5.56164 22.8606 5.66677 22.4773 5.87283 22.1469C6.07889 21.8165 6.37692 21.5534 6.73035 21.3899C9.77061 19.9861 13.0817 19.2659 16.4303 19.2799C18.3067 19.2776 20.1765 19.4991 22.0003 19.9399V17.8999ZM22.1403 27.4099H28.2803V28.8099H22.1403V27.4099Z" fill="#565656"/>
<path d="M33.17 21.47H28V23.47H32.17V31.84H18V23.47H24.3V23.89C24.3 24.1552 24.4054 24.4096 24.5929 24.5971C24.7804 24.7846 25.0348 24.89 25.3 24.89C25.5652 24.89 25.8196 24.7846 26.0071 24.5971C26.1946 24.4096 26.3 24.1552 26.3 23.89V20C26.3 19.7348 26.1946 19.4804 26.0071 19.2929C25.8196 19.1054 25.5652 19 25.3 19C25.0348 19 24.7804 19.1054 24.5929 19.2929C24.4054 19.4804 24.3 19.7348 24.3 20V21.47H17C16.7348 21.47 16.4804 21.5754 16.2929 21.7629C16.1054 21.9504 16 22.2048 16 22.47V32.84C16 33.1052 16.1054 33.3596 16.2929 33.5471C16.4804 33.7346 16.7348 33.84 17 33.84H33.17C33.4352 33.84 33.6896 33.7346 33.8771 33.5471C34.0646 33.3596 34.17 33.1052 34.17 32.84V22.47C34.17 22.2048 34.0646 21.9504 33.8771 21.7629C33.6896 21.5754 33.4352 21.47 33.17 21.47Z" fill="#565656"/>
</svg>
