<svg width="30" height="30" viewBox="0 0 30 30" fill="none" xmlns="http://www.w3.org/2000/svg">
<path d="M29.4954 26.1258C28.919 25.4433 21.9337 22.1941 20.6662 21.5812C19.4054 20.979 18.9024 19.3103 18.9024 19.3103C18.9024 19.3103 18.3349 19.6876 18.3349 18.6278C18.3349 17.5665 18.9024 19.3103 19.4699 15.218C19.4699 15.218 21.0446 14.6867 20.7319 10.2933H20.3535C20.3535 10.2933 21.2994 5.59612 20.3535 4.00631C19.4043 2.4165 19.0326 1.35663 16.9483 0.596516C14.8673 -0.162258 15.624 -0.0110385 14.1128 0.0665786C12.5993 0.142857 11.3396 1.12779 11.3396 1.65639C11.3396 1.65639 10.3937 1.73267 10.0176 2.18767C9.63921 2.64266 9.00935 4.76241 9.00935 5.29235C9.00935 5.82228 9.32428 9.38732 9.63921 10.1421L9.26419 10.2893C8.94926 14.684 10.5239 15.2166 10.5239 15.2166C11.0915 19.3089 11.659 17.5652 11.659 18.6264C11.659 19.6863 11.0915 19.3089 11.0915 19.3089C11.0915 19.3089 10.5873 20.9763 9.32762 21.5799C8.0679 22.1861 1.07488 25.4433 0.506229 26.1245C-0.061314 26.8204 0.0021171 30 0.0021171 30H29.9973C29.9973 30 30.0674 26.8177 29.4932 26.1232L29.4954 26.1258ZM22.4456 29.1368H17.3689V27.4641H22.4456V29.1368Z" fill="#565656"/>
</svg>
 