<svg width="23" height="14" viewBox="0 0 23 14" fill="none" xmlns="http://www.w3.org/2000/svg">
<path d="M1.61963 8.54766C5.71961 -0.563411 18.0195 -0.563411 22.1195 8.54766" stroke="#818184" stroke-width="1.5" stroke-linecap="round" stroke-linejoin="round"/>
<path d="M11.8698 13.1032C11.4211 13.1032 10.9768 13.0148 10.5623 12.8431C10.1478 12.6714 9.7711 12.4197 9.45384 12.1025C9.13657 11.7852 8.8849 11.4086 8.7132 10.994C8.5415 10.5795 8.45312 10.1352 8.45312 9.68655C8.45312 9.23787 8.5415 8.79358 8.7132 8.37905C8.8849 7.96453 9.13657 7.58788 9.45384 7.27061C9.7711 6.95335 10.1478 6.70168 10.5623 6.52997C10.9768 6.35827 11.4211 6.2699 11.8698 6.2699C12.7759 6.2699 13.645 6.62986 14.2857 7.27061C14.9265 7.91136 15.2864 8.7804 15.2864 9.68655C15.2864 10.5927 14.9265 11.4617 14.2857 12.1025C13.645 12.7432 12.7759 13.1032 11.8698 13.1032Z" stroke="#818184" stroke-width="1.5" stroke-linecap="round" stroke-linejoin="round"/>
</svg>
