<svg width="19" height="15" viewBox="0 0 19 15" fill="none" xmlns="http://www.w3.org/2000/svg">
<path d="M3.5625 0.96875L15.4375 14.0312" stroke="#818184" stroke-linecap="round" stroke-linejoin="round"/>
<path d="M11.4975 9.69697C10.9149 10.2267 10.1457 10.5032 9.35912 10.4658C8.57257 10.4283 7.83311 10.08 7.30341 9.49732C6.77372 8.91468 6.49717 8.14547 6.53461 7.35892C6.57205 6.57238 6.92041 5.83292 7.50306 5.30322" stroke="#818184" stroke-linecap="round" stroke-linejoin="round"/>
<path d="M10.0586 4.58398C10.6898 4.70485 11.2646 5.02725 11.6969 5.50276C12.1292 5.97826 12.3955 6.58119 12.4559 7.22098" stroke="#818184" stroke-linecap="round" stroke-linejoin="round"/>
<path d="M15.4825 10.5504C17.1004 9.10165 17.8122 7.50001 17.8122 7.50001C17.8122 7.50001 15.4372 2.15626 9.49969 2.15626C8.98552 2.15556 8.47216 2.19726 7.96484 2.28095" stroke="#818184" stroke-linecap="round" stroke-linejoin="round"/>
<path d="M5.49219 3.09131C2.46629 4.62318 1.1875 7.4999 1.1875 7.4999C1.1875 7.4999 3.5625 12.8437 9.5 12.8437C10.8912 12.8546 12.2651 12.534 13.5078 11.9085" stroke="#818184" stroke-linecap="round" stroke-linejoin="round"/>
</svg>
