<svg width="35" height="35" viewBox="0 0 35 35" fill="none" xmlns="http://www.w3.org/2000/svg">
<path d="M17.4997 5.83301C19.0468 5.83301 20.5305 6.44759 21.6245 7.54155C22.7184 8.63551 23.333 10.1192 23.333 11.6663C23.333 13.2134 22.7184 14.6972 21.6245 15.7911C20.5305 16.8851 19.0468 17.4997 17.4997 17.4997C15.9526 17.4997 14.4688 16.8851 13.3749 15.7911C12.2809 14.6972 11.6663 13.2134 11.6663 11.6663C11.6663 10.1192 12.2809 8.63551 13.3749 7.54155C14.4688 6.44759 15.9526 5.83301 17.4997 5.83301ZM17.4997 20.4163C23.9455 20.4163 29.1663 23.0268 29.1663 26.2497V29.1663H5.83301V26.2497C5.83301 23.0268 11.0538 20.4163 17.4997 20.4163Z" fill="#818184"/>
</svg>
 