<svg width="21" height="22" viewBox="0 0 21 22" fill="none" xmlns="http://www.w3.org/2000/svg">
<path fill-rule="evenodd" clip-rule="evenodd" d="M10.5 7.25C9.50544 7.25 8.55161 7.64509 7.84835 8.34835C7.14509 9.05161 6.75 10.0054 6.75 11C6.75 11.9946 7.14509 12.9484 7.84835 13.6517C8.55161 14.3549 9.50544 14.75 10.5 14.75C11.4946 14.75 12.4484 14.3549 13.1517 13.6517C13.8549 12.9484 14.25 11.9946 14.25 11C14.25 10.0054 13.8549 9.05161 13.1517 8.34835C12.4484 7.64509 11.4946 7.25 10.5 7.25ZM8.25 11C8.25 10.4033 8.48705 9.83097 8.90901 9.40901C9.33097 8.98705 9.90326 8.75 10.5 8.75C11.0967 8.75 11.669 8.98705 12.091 9.40901C12.5129 9.83097 12.75 10.4033 12.75 11C12.75 11.5967 12.5129 12.169 12.091 12.591C11.669 13.0129 11.0967 13.25 10.5 13.25C9.90326 13.25 9.33097 13.0129 8.90901 12.591C8.48705 12.169 8.25 11.5967 8.25 11Z" fill="#565656"/>
<path fill-rule="evenodd" clip-rule="evenodd" d="M10.475 0.25C10.03 0.25 9.65902 0.25 9.35502 0.27C9.04428 0.28294 8.73782 0.347138 8.44802 0.46C8.11427 0.59809 7.81099 0.800573 7.55551 1.05589C7.30002 1.3112 7.09733 1.61434 6.95902 1.948C6.81402 2.298 6.77502 2.668 6.75902 3.07C6.75742 3.21702 6.7185 3.36123 6.64591 3.48909C6.57332 3.61695 6.46944 3.72428 6.34402 3.801C6.2149 3.8715 6.06998 3.90803 5.92287 3.90716C5.77576 3.90628 5.63129 3.86803 5.50302 3.796C5.14702 3.608 4.80702 3.457 4.43102 3.407C4.07296 3.3599 3.70914 3.38379 3.36031 3.4773C3.01149 3.57081 2.6845 3.73212 2.39802 3.952C2.15579 4.14688 1.94733 4.38034 1.78102 4.643C1.61102 4.897 1.42502 5.218 1.20302 5.603L1.17802 5.647C0.955019 6.032 0.770019 6.353 0.636019 6.627C0.496019 6.913 0.386019 7.195 0.346019 7.507C0.250619 8.22999 0.446299 8.96127 0.890019 9.54C1.12102 9.841 1.42202 10.06 1.76202 10.274C1.88878 10.3489 1.99439 10.4549 2.06891 10.5819C2.14344 10.7089 2.18442 10.8528 2.18802 11C2.18442 11.1472 2.14344 11.2911 2.06891 11.4181C1.99439 11.5451 1.88878 11.6511 1.76202 11.726C1.42202 11.94 1.12202 12.159 0.890019 12.46C0.670136 12.7465 0.508833 13.0735 0.415322 13.4223C0.321811 13.7711 0.297922 14.1349 0.345019 14.493C0.386019 14.805 0.495019 15.087 0.635019 15.373C0.770019 15.647 0.955019 15.968 1.17802 16.353L1.20302 16.397C1.42502 16.782 1.61102 17.103 1.78102 17.357C1.95802 17.62 2.14802 17.857 2.39802 18.047C2.68443 18.2671 3.01138 18.4285 3.36021 18.5222C3.70903 18.6159 4.0729 18.64 4.43102 18.593C4.80702 18.543 5.14702 18.393 5.50302 18.204C5.63114 18.1321 5.77544 18.0939 5.92237 18.093C6.06931 18.0921 6.21405 18.1286 6.34302 18.199C6.46914 18.2751 6.57367 18.3823 6.64666 18.5102C6.71966 18.6382 6.75868 18.7827 6.76002 18.93C6.77502 19.332 6.81402 19.702 6.96002 20.052C7.09811 20.3857 7.30059 20.689 7.55591 20.9445C7.81122 21.2 8.11436 21.4027 8.44802 21.541C8.73802 21.661 9.03802 21.708 9.35502 21.729C9.65902 21.75 10.03 21.75 10.475 21.75H10.525C10.97 21.75 11.341 21.75 11.645 21.73C11.963 21.708 12.262 21.661 12.552 21.54C12.8858 21.4019 13.189 21.1994 13.4445 20.9441C13.7 20.6888 13.9027 20.3857 14.041 20.052C14.186 19.702 14.225 19.332 14.241 18.93C14.2425 18.7828 14.2813 18.6384 14.3539 18.5103C14.4265 18.3823 14.5305 18.2748 14.656 18.198C14.7852 18.1276 14.9302 18.0913 15.0773 18.0923C15.2244 18.0934 15.3688 18.1318 15.497 18.204C15.853 18.392 16.193 18.543 16.569 18.592C17.292 18.6874 18.0233 18.4917 18.602 18.048C18.852 17.856 19.042 17.62 19.219 17.357C19.389 17.103 19.575 16.782 19.797 16.397L19.822 16.353C20.045 15.968 20.23 15.647 20.364 15.373C20.504 15.087 20.614 14.804 20.654 14.493C20.7494 13.77 20.5537 13.0387 20.11 12.46C19.879 12.159 19.578 11.94 19.238 11.726C19.1113 11.6511 19.0056 11.5451 18.9311 11.4181C18.8566 11.2911 18.8156 11.1472 18.812 11C18.812 10.722 18.964 10.446 19.238 10.274C19.578 10.06 19.878 9.841 20.11 9.54C20.3299 9.25352 20.4912 8.92653 20.5847 8.5777C20.6782 8.22888 20.7021 7.86506 20.655 7.507C20.6074 7.19971 20.5094 6.90238 20.365 6.627C20.1943 6.29475 20.0132 5.96792 19.822 5.647L19.797 5.603C19.6143 5.27709 19.4216 4.95693 19.219 4.643C19.0527 4.38062 18.8442 4.14749 18.602 3.953C18.3156 3.73294 17.9887 3.57146 17.6398 3.47778C17.291 3.38409 16.9271 3.36004 16.569 3.407C16.193 3.457 15.853 3.607 15.497 3.796C15.3689 3.86786 15.2246 3.90601 15.0777 3.90688C14.9307 3.90776 14.786 3.87132 14.657 3.801C14.5312 3.72452 14.4269 3.6173 14.354 3.48942C14.2811 3.36154 14.2418 3.21721 14.24 3.07C14.225 2.668 14.186 2.298 14.04 1.948C13.9019 1.61425 13.6994 1.31097 13.4441 1.05549C13.1888 0.800001 12.8857 0.597314 12.552 0.459C12.262 0.339 11.962 0.292 11.645 0.271C11.341 0.25 10.97 0.25 10.525 0.25H10.475ZM9.02202 1.845C9.09902 1.813 9.21602 1.784 9.45702 1.767C9.70402 1.75 10.024 1.75 10.5 1.75C10.976 1.75 11.296 1.75 11.543 1.767C11.784 1.784 11.901 1.813 11.978 1.845C12.285 1.972 12.528 2.215 12.655 2.522C12.695 2.618 12.728 2.769 12.741 3.126C12.771 3.918 13.18 4.681 13.906 5.1C14.632 5.52 15.497 5.492 16.198 5.122C16.514 4.955 16.661 4.908 16.765 4.895C17.0936 4.85158 17.4259 4.94043 17.689 5.142C17.755 5.193 17.839 5.28 17.974 5.48C18.113 5.686 18.273 5.963 18.511 6.375C18.749 6.787 18.908 7.065 19.017 7.287C19.124 7.504 19.157 7.62 19.167 7.703C19.2104 8.03157 19.1216 8.36392 18.92 8.627C18.856 8.71 18.742 8.814 18.44 9.004C17.768 9.426 17.312 10.162 17.312 11C17.312 11.838 17.768 12.574 18.44 12.996C18.742 13.186 18.856 13.29 18.92 13.373C19.122 13.636 19.21 13.968 19.167 14.297C19.157 14.38 19.123 14.497 19.017 14.713C18.908 14.936 18.749 15.213 18.511 15.625C18.273 16.037 18.112 16.314 17.974 16.52C17.839 16.72 17.755 16.807 17.689 16.858C17.4259 17.0596 17.0936 17.1484 16.765 17.105C16.661 17.092 16.515 17.045 16.198 16.878C15.498 16.508 14.632 16.48 13.906 16.899C13.18 17.319 12.771 18.082 12.741 18.874C12.728 19.231 12.695 19.382 12.655 19.478C12.5922 19.6298 12.5001 19.7677 12.3839 19.8839C12.2677 20.0001 12.1298 20.0922 11.978 20.155C11.901 20.187 11.784 20.216 11.543 20.233C11.296 20.25 10.976 20.25 10.5 20.25C10.024 20.25 9.70402 20.25 9.45702 20.233C9.21602 20.216 9.09902 20.187 9.02202 20.155C8.87022 20.0922 8.7323 20.0001 8.61613 19.8839C8.49997 19.7677 8.40784 19.6298 8.34502 19.478C8.30502 19.382 8.27202 19.231 8.25902 18.874C8.22902 18.082 7.82002 17.319 7.09402 16.9C6.36802 16.48 5.50302 16.508 4.80202 16.878C4.48602 17.045 4.33902 17.092 4.23502 17.105C3.90645 17.1484 3.5741 17.0596 3.31102 16.858C3.24502 16.807 3.16102 16.72 3.02602 16.52C2.83793 16.2272 2.65885 15.9287 2.48902 15.625C2.25102 15.213 2.09202 14.935 1.98302 14.713C1.87602 14.496 1.84302 14.38 1.83302 14.297C1.7896 13.9684 1.87845 13.6361 2.08002 13.373C2.14402 13.29 2.25802 13.186 2.56002 12.996C3.23202 12.574 3.68802 11.838 3.68802 11C3.68802 10.162 3.23202 9.426 2.56002 9.004C2.25802 8.814 2.14402 8.71 2.08002 8.627C1.87845 8.36392 1.7896 8.03157 1.83302 7.703C1.84302 7.62 1.87702 7.503 1.98302 7.287C2.09202 7.064 2.25102 6.787 2.48902 6.375C2.72702 5.963 2.88802 5.686 3.02602 5.48C3.16102 5.28 3.24502 5.193 3.31102 5.142C3.5741 4.94043 3.90645 4.85158 4.23502 4.895C4.33902 4.908 4.48502 4.955 4.80202 5.122C5.50202 5.492 6.36802 5.52 7.09402 5.1C7.82002 4.681 8.22902 3.918 8.25902 3.126C8.27202 2.769 8.30502 2.618 8.34502 2.522C8.47202 2.215 8.71502 1.972 9.02202 1.845Z" fill="#565656"/>
</svg>
 