<svg width="32" height="33" viewBox="0 0 32 33" fill="none" xmlns="http://www.w3.org/2000/svg">
<path d="M1 7.26123C1 5.76939 1.52678 4.33865 2.46447 3.28376C3.40215 2.22886 4.67392 1.63623 6 1.63623H26C27.3261 1.63623 28.5979 2.22886 29.5355 3.28376C30.4732 4.33865 31 5.76939 31 7.26123V26.0112C31 27.5031 30.4732 28.9338 29.5355 29.9887C28.5979 31.0436 27.3261 31.6362 26 31.6362H6C4.67392 31.6362 3.40215 31.0436 2.46447 29.9887C1.52678 28.9338 1 27.5031 1 26.0112V7.26123Z" stroke="#565656" stroke-width="2" stroke-linecap="round" stroke-linejoin="round"/>
<path d="M20.9998 9.13623H24.3332M20.9998 16.6362H24.3332M7.6665 24.1362H24.3332M7.6665 12.8862C7.6665 13.8808 8.01769 14.8346 8.64281 15.5379C9.26794 16.2411 10.1158 16.6362 10.9998 16.6362C11.8839 16.6362 12.7317 16.2411 13.3569 15.5379C13.982 14.8346 14.3332 13.8808 14.3332 12.8862C14.3332 11.8917 13.982 10.9378 13.3569 10.2346C12.7317 9.53132 11.8839 9.13623 10.9998 9.13623C10.1158 9.13623 9.26794 9.53132 8.64281 10.2346C8.01769 10.9378 7.6665 11.8917 7.6665 12.8862Z" stroke="#565656" stroke-width="2" stroke-linecap="round" stroke-linejoin="round"/>
</svg>
