<svg width="30" height="30" viewBox="0 0 30 30" fill="none" xmlns="http://www.w3.org/2000/svg">
<path fill-rule="evenodd" clip-rule="evenodd" d="M4.71646 12.6784V9.71937C4.71646 7.14163 5.74851 4.66947 7.58557 2.84674C9.42262 1.024 11.9142 0 14.5122 0C17.1102 0 19.6018 1.024 21.4388 2.84674C23.2759 4.66947 24.3079 7.14163 24.3079 9.71937V12.6784C25.926 12.7979 26.9782 13.1003 27.7488 13.8649C29.0244 15.1291 29.0244 17.1666 29.0244 21.2386C29.0244 25.3107 29.0244 27.3481 27.7488 28.6124C26.4746 29.878 24.4211 29.878 20.3171 29.878H8.70732C4.60327 29.878 2.54979 29.878 1.27562 28.6124C-8.64994e-08 27.3481 0 25.3107 0 21.2386C0 17.1666 -8.64994e-08 15.1291 1.27562 13.8649C2.04477 13.1003 3.09835 12.7979 4.71646 12.6784ZM6.89329 9.71937C6.89329 7.71446 7.696 5.79167 9.12482 4.37399C10.5536 2.9563 12.4915 2.15986 14.5122 2.15986C16.5329 2.15986 18.4708 2.9563 19.8996 4.37399C21.3284 5.79167 22.1311 7.71446 22.1311 9.71937V12.6049C21.5753 12.5992 20.9716 12.5992 20.3171 12.5992H8.70732C8.05137 12.5992 7.44911 12.5992 6.89329 12.6049V9.71937ZM8.70732 22.6785C9.09221 22.6785 9.46133 22.5268 9.73348 22.2568C10.0056 21.9867 10.1585 21.6205 10.1585 21.2386C10.1585 20.8567 10.0056 20.4905 9.73348 20.2204C9.46133 19.9504 9.09221 19.7987 8.70732 19.7987C8.32243 19.7987 7.95331 19.9504 7.68115 20.2204C7.40899 20.4905 7.2561 20.8567 7.2561 21.2386C7.2561 21.6205 7.40899 21.9867 7.68115 22.2568C7.95331 22.5268 8.32243 22.6785 8.70732 22.6785ZM14.5122 22.6785C14.8971 22.6785 15.2662 22.5268 15.5384 22.2568C15.8105 21.9867 15.9634 21.6205 15.9634 21.2386C15.9634 20.8567 15.8105 20.4905 15.5384 20.2204C15.2662 19.9504 14.8971 19.7987 14.5122 19.7987C14.1273 19.7987 13.7582 19.9504 13.486 20.2204C13.2139 20.4905 13.061 20.8567 13.061 21.2386C13.061 21.6205 13.2139 21.9867 13.486 22.2568C13.7582 22.5268 14.1273 22.6785 14.5122 22.6785ZM21.7683 21.2386C21.7683 21.6205 21.6154 21.9867 21.3432 22.2568C21.0711 22.5268 20.702 22.6785 20.3171 22.6785C19.9322 22.6785 19.5631 22.5268 19.2909 22.2568C19.0188 21.9867 18.8659 21.6205 18.8659 21.2386C18.8659 20.8567 19.0188 20.4905 19.2909 20.2204C19.5631 19.9504 19.9322 19.7987 20.3171 19.7987C20.702 19.7987 21.0711 19.9504 21.3432 20.2204C21.6154 20.4905 21.7683 20.8567 21.7683 21.2386Z" fill="#818184"/>
</svg>

