<svg width="31" height="31" viewBox="0 0 31 31" fill="none" xmlns="http://www.w3.org/2000/svg">
<path d="M20 28H17.3333C16.6261 28 15.9478 27.719 15.4477 27.219C14.9476 26.7189 14.6667 26.0406 14.6667 25.3333C14.6667 24.6261 14.9476 23.9478 15.4477 23.4477C15.9478 22.9476 16.6261 22.6667 17.3333 22.6667H20V20H17.3333C15.9188 20 14.5623 20.5619 13.5621 21.5621C12.5619 22.5623 12 23.9188 12 25.3333C12 26.7478 12.5619 28.1044 13.5621 29.1046C14.5623 30.1048 15.9188 30.6667 17.3333 30.6667H20V28ZM30.6667 25.3333C30.6667 26.7478 30.1048 28.1044 29.1046 29.1046C28.1044 30.1048 26.7478 30.6667 25.3333 30.6667H22.6667V28H25.3333C26.0406 28 26.7189 27.719 27.219 27.219C27.719 26.7189 28 26.0406 28 25.3333C28 24.6261 27.719 23.9478 27.219 23.4477C26.7189 22.9476 26.0406 22.6667 25.3333 22.6667H22.6667V20H25.3333C26.7478 20 28.1044 20.5619 29.1046 21.5621C30.1048 22.5623 30.6667 23.9188 30.6667 25.3333Z" fill="#565656"/>
<path d="M18.6667 24.0003H24V26.6669H18.6667V24.0003ZM9.33333 25.3336C9.33594 24.8866 9.37608 24.4406 9.45333 24.0003H4V22.1336C4 19.4669 9.33333 18.0003 12 18.0003C12.6035 18.0081 13.2054 18.0638 13.8 18.1669C14.8976 17.62 16.107 17.3347 17.3333 17.3336H24V5.3336C23.9979 4.62701 23.7163 3.94996 23.2166 3.45032C22.717 2.95068 22.0399 2.66905 21.3333 2.66694H15.76C15.487 1.88752 14.9785 1.21221 14.3049 0.734428C13.6313 0.256644 12.8258 0 12 0C11.1742 0 10.3687 0.256644 9.69511 0.734428C9.0215 1.21221 8.51302 1.88752 8.24 2.66694H2.66667C1.96007 2.66905 1.28302 2.95068 0.78338 3.45032C0.28374 3.94996 0.0021103 4.62701 0 5.3336L0 24.0003C0.0021103 24.7069 0.28374 25.3839 0.78338 25.8836C1.28302 26.3832 1.96007 26.6648 2.66667 26.6669H9.45333C9.37608 26.2266 9.33594 25.7806 9.33333 25.3336ZM12 2.66694C12.2637 2.66694 12.5215 2.74514 12.7408 2.89164C12.96 3.03815 13.1309 3.24639 13.2318 3.49003C13.3328 3.73366 13.3592 4.00175 13.3077 4.26039C13.2563 4.51903 13.1293 4.75661 12.9428 4.94308C12.7563 5.12955 12.5188 5.25654 12.2601 5.30798C12.0015 5.35943 11.7334 5.33303 11.4898 5.23211C11.2461 5.13119 11.0379 4.9603 10.8914 4.74103C10.7449 4.52176 10.6667 4.26398 10.6667 4.00027C10.6677 3.64697 10.8085 3.30845 11.0584 3.05863C11.3082 2.80881 11.6467 2.66799 12 2.66694ZM12 8.00027C12.7911 8.00027 13.5645 8.23487 14.2223 8.67439C14.8801 9.11392 15.3928 9.73863 15.6955 10.4695C15.9983 11.2004 16.0775 12.0047 15.9231 12.7806C15.7688 13.5566 15.3878 14.2693 14.8284 14.8287C14.269 15.3881 13.5563 15.7691 12.7804 15.9234C12.0044 16.0778 11.2002 15.9985 10.4693 15.6958C9.73836 15.393 9.11365 14.8803 8.67412 14.2226C8.2346 13.5648 8 12.7914 8 12.0003C7.9993 11.4748 8.10228 10.9543 8.30305 10.4687C8.50382 9.98309 8.79843 9.54185 9.17001 9.17028C9.54158 8.7987 9.98282 8.50409 10.4684 8.30332C10.9541 8.10255 11.4745 7.99957 12 8.00027Z" fill="#565656"/>
</svg>
 