<svg width="16" height="16" viewBox="0 0 16 16" fill="none" xmlns="http://www.w3.org/2000/svg">
<path d="M14.9489 14.5509L11.2434 10.8455C12.282 9.70303 12.8325 8.19972 12.7774 6.65678C12.7223 5.11384 12.0659 3.65364 10.9485 2.58821C9.83109 1.52279 8.34131 0.936634 6.7975 0.955009C5.25368 0.973384 3.77827 1.59483 2.68655 2.68655C1.59483 3.77827 0.973384 5.25368 0.955009 6.7975C0.936634 8.34131 1.52279 9.83109 2.58821 10.9485C3.65364 12.0659 5.11384 12.7223 6.65678 12.7774C8.19972 12.8325 9.70303 12.282 10.8455 11.2434L14.5509 14.9489C14.6037 15.0017 14.6753 15.0313 14.7499 15.0313C14.8246 15.0313 14.8961 15.0017 14.9489 14.9489C15.0017 14.8961 15.0313 14.8246 15.0313 14.7499C15.0313 14.6753 15.0017 14.6037 14.9489 14.5509ZM1.53117 6.87492C1.53117 5.81803 1.84458 4.78487 2.43176 3.9061C3.01894 3.02732 3.85352 2.3424 4.82996 1.93794C5.8064 1.53349 6.88085 1.42766 7.91744 1.63385C8.95402 1.84004 9.90619 2.34899 10.6535 3.09632C11.4009 3.84366 11.9098 4.79582 12.116 5.83241C12.3222 6.869 12.2164 7.94345 11.8119 8.91989C11.4074 9.89633 10.7225 10.7309 9.84375 11.3181C8.96498 11.9053 7.93182 12.2187 6.87492 12.2187C5.45813 12.2172 4.09979 11.6537 3.09797 10.6519C2.09614 9.65006 1.53266 8.29172 1.53117 6.87492Z" fill="#616161"/>
</svg>
